<?xml version="1.0" standalone="no"?>
<!DOCTYPE svg PUBLIC "-//W3C//DTD SVG 20010904//EN"
 "http://www.w3.org/TR/2001/REC-SVG-20010904/DTD/svg10.dtd">
<svg version="1.0" xmlns="http://www.w3.org/2000/svg"
 width="1000.000000pt" height="1000.000000pt" viewBox="0 0 1000.000000 1000.000000"
 preserveAspectRatio="xMidYMid meet">
<metadata>
Created by potrace 1.11, written by Peter Selinger 2001-2013
</metadata>
<g transform="translate(0.000000,1000.000000) scale(0.100000,-0.100000)"
fill="#000000" stroke="none">
<path d="M4799 9996 c-2 -2 -42 -7 -89 -10 -47 -4 -94 -9 -105 -11 -11 -2 -42
-7 -70 -10 -207 -25 -540 -118 -762 -214 -603 -260 -1116 -709 -1458 -1276
-43 -72 -137 -253 -179 -345 -80 -177 -182 -514 -211 -695 -39 -246 -49 -363
-48 -560 0 -122 9 -308 17 -351 2 -10 7 -44 11 -74 4 -30 9 -71 11 -90 19
-138 132 -542 174 -620 7 -14 13 -27 13 -30 -1 -10 55 -138 142 -325 21 -44
50 -107 65 -140 15 -33 39 -85 53 -115 14 -30 48 -104 75 -165 28 -60 71 -155
97 -210 26 -55 58 -125 72 -155 14 -30 35 -77 48 -105 83 -177 105 -225 125
-270 24 -53 183 -398 230 -500 15 -33 42 -91 60 -130 18 -38 100 -216 182
-395 83 -179 161 -350 175 -380 29 -65 55 -120 117 -253 25 -55 46 -100 46
-102 0 -2 24 -54 54 -116 29 -63 74 -159 99 -214 25 -55 62 -136 82 -180 21
-44 118 -255 217 -470 99 -214 193 -419 210 -455 17 -36 82 -177 145 -315 206
-449 219 -472 327 -581 88 -89 161 -125 259 -130 137 -6 253 62 374 221 26 34
129 220 131 235 1 7 39 92 242 530 100 217 194 420 207 450 64 139 204 442
236 510 19 41 58 127 87 190 29 63 67 147 85 185 18 39 99 214 180 390 81 176
160 347 175 380 89 192 184 399 232 505 14 30 40 87 58 125 18 39 45 97 60
130 15 33 43 94 63 135 19 41 46 100 60 130 13 30 39 87 57 125 18 39 67 147
110 240 43 94 97 211 120 260 23 50 50 108 60 130 10 22 34 74 53 115 19 41
46 100 60 130 14 30 40 87 57 125 31 66 52 113 114 248 31 69 73 161 91 202
41 94 116 326 140 435 30 133 45 207 49 239 2 21 7 53 11 72 38 218 38 594 -1
864 -20 143 -24 162 -40 235 -9 36 -17 72 -19 80 -41 190 -133 439 -247 665
-296 591 -801 1093 -1393 1386 -60 30 -141 68 -180 83 -38 16 -83 35 -100 42
-81 34 -334 111 -430 130 -117 24 -222 41 -300 49 -33 4 -73 9 -90 12 -34 5
-491 13 -496 9z m437 -1261 c577 -82 1061 -394 1358 -874 122 -197 222 -461
251 -661 4 -24 8 -47 10 -50 2 -3 7 -49 11 -100 11 -141 6 -354 -10 -435 -2
-11 -7 -40 -11 -65 -36 -234 -168 -555 -302 -739 -10 -14 -38 -52 -63 -85 -66
-91 -253 -273 -362 -355 -53 -39 -101 -71 -107 -71 -5 0 -11 -3 -13 -7 -10
-24 -275 -152 -393 -192 -96 -32 -235 -67 -300 -76 -22 -3 -71 -9 -110 -14
-95 -13 -380 -5 -490 13 -111 18 -257 56 -355 92 -302 112 -612 335 -805 579
-22 28 -42 52 -45 55 -13 13 -91 131 -119 180 -131 227 -208 462 -247 750 -8
62 -8 336 0 385 4 22 9 60 11 84 2 24 7 51 9 60 3 9 8 32 11 51 20 124 94 331
172 478 183 350 463 628 812 806 203 103 432 173 631 192 36 4 66 8 68 9 10 9
313 0 388 -10z"/>
</g>
</svg>
